<?xml version="1.0" standalone="no"?>
<!DOCTYPE svg PUBLIC "-//W3C//DTD SVG 20010904//EN"
 "http://www.w3.org/TR/2001/REC-SVG-20010904/DTD/svg10.dtd">
<svg version="1.0" xmlns="http://www.w3.org/2000/svg"
 width="3750.000000pt" height="3750.000000pt" viewBox="0 0 3750.000000 3750.000000"
 preserveAspectRatio="xMidYMid meet">
<metadata>
Created by potrace 1.11, written by Peter Selinger 2001-2013
</metadata>
<g transform="translate(0.000000,3750.000000) scale(0.100000,-0.100000)"
fill="#000000" stroke="none">
<path d="M0 18750 l0 -18750 18750 0 18750 0 0 18750 0 18750 -18750 0 -18750
0 0 -18750z m16185 14425 l3910 -617 1755 -1753 1755 -1754 2165 -897 c1191
-493 2172 -900 2180 -905 12 -7 12 -8 1 -9 -8 0 -1065 88 -2350 195 -1285 107
-2353 196 -2374 197 -37 3 -38 2 -1067 -1041 -567 -574 -1030 -1047 -1030
-1051 0 -4 452 -377 1006 -829 766 -627 1004 -826 1000 -839 -3 -9 -373 -1295
-821 -2857 -448 -1562 -819 -2849 -824 -2860 -5 -11 -2000 -1701 -4434 -3755
-2434 -2054 -4424 -3736 -4423 -3737 3 -3 13340 1697 13342 1700 1 1 -315
2779 -702 6172 -387 3394 -703 6183 -701 6199 1 17 1432 -3989 3671 -10278
2018 -5669 3667 -10308 3665 -10310 -5 -5 -4953 16 -4958 21 -3 2 -191 1444
-419 3206 -227 1761 -414 3202 -415 3204 -1 1 -3076 -12 -6832 -30 l-6830 -31
-499 -421 c-274 -231 -502 -419 -507 -418 -5 2 -580 250 -1278 553 -698 302
-1273 550 -1278 550 -4 0 -915 -1483 -2023 -3296 -1108 -1812 -2023 -3305
-2033 -3317 -21 -27 -355 -937 2480 6768 6569 17859 7485 20351 7487 20360 0
6 -588 570 -1309 1253 -720 684 -1311 1247 -1313 1251 -1 5 19 5 45 0 26 -5
1807 -286 3958 -624z"/>
</g>
</svg>
